<?xml version="1.0" encoding="UTF-8" standalone="no"?>
<svg
   xmlns:dc="http://purl.org/dc/elements/1.1/"
   xmlns:cc="http://creativecommons.org/ns#"
   xmlns:rdf="http://www.w3.org/1999/02/22-rdf-syntax-ns#"
   xmlns:svg="http://www.w3.org/2000/svg"
   xmlns="http://www.w3.org/2000/svg"
   xmlns:sodipodi="http://sodipodi.sourceforge.net/DTD/sodipodi-0.dtd"
   xmlns:inkscape="http://www.inkscape.org/namespaces/inkscape"
   width="128"
   height="128"
   viewBox="0 0 136.51432 136.51437"
   id="svg2"
   version="1.1"
   inkscape:version="0.48.4 r9939"
   sodipodi:docname="placeholdersior.svg"
   inkscape:export-filename="J:\Games\Ren'Py\Projects\gasl\game\gui\icons\placeholdersior.png"
   inkscape:export-xdpi="90"
   inkscape:export-ydpi="90">
  <metadata
     id="metadata9">
    <rdf:RDF>
      <cc:Work
         rdf:about="">
        <dc:format>image/svg+xml</dc:format>
        <dc:type
           rdf:resource="http://purl.org/dc/dcmitype/StillImage" />
        <dc:title></dc:title>
      </cc:Work>
    </rdf:RDF>
  </metadata>
  <defs
     id="defs7" />
  <sodipodi:namedview
     pagecolor="#ffffff"
     bordercolor="#666666"
     borderopacity="1"
     objecttolerance="10"
     gridtolerance="10"
     guidetolerance="10"
     inkscape:pageopacity="0"
     inkscape:pageshadow="2"
     inkscape:window-width="640"
     inkscape:window-height="480"
     id="namedview5"
     showgrid="false"
     inkscape:zoom="1.0553391"
     inkscape:cx="-95.841619"
     inkscape:cy="57.670368"
     inkscape:window-x="0"
     inkscape:window-y="0"
     inkscape:window-maximized="0"
     inkscape:current-layer="svg2" />
  <path
     id="Selection"
     d="m 85.400975,134.33177 c -0.548207,0.43399 -3.0351,0.29123 -3.825992,0.29123 0,0 -10.278773,0 -10.278773,0 0,0 0,-3.14074 0,-3.14074 0,0 -3.426266,0 -3.426266,0 0,0 0,3.14074 0,3.14074 0,0 -12.562942,0 -12.562942,0 -2.2442,-0.0428 -1.998654,-0.69096 -1.998654,-3.14074 -0.576754,-0.003 -1.459014,0.0343 -1.987232,-0.17131 -0.990763,-0.3826 -1.627476,-1.55038 -2.201368,-2.39838 -1.030732,-1.52469 -2.227074,-3.51192 -3.806004,-4.46841 0,0 -10.278787,-5.02519 -10.278787,-5.02519 0,0 -7.13804,-3.31204 -7.13804,-3.31204 -0.8223,-0.18844 -2.09857,0.21414 -3.14072,0.23984 -2.31273,0.0543 -1.86446,-0.31694 -3.71179,-0.56819 0,0 -1.64175,-11.13535 -1.64175,-11.13535 -0.14848,-0.88796 -0.77662,-4.08866 -0.46825,-4.765349 0.30836,-0.668114 1.19063,-0.679535 1.82448,-0.779471 1.82733,-0.285525 2.4098,-0.174168 3.99731,-1.321962 0,0 13.13398,-9.941868 13.13398,-9.941868 1.14209,-0.859418 5.167947,-3.637541 5.704724,-4.631158 0.351197,-0.648133 0.531071,-3.389141 0.599596,-4.257127 0,0 0.879407,-8.280119 0.879407,-8.280119 0,0 2.001506,-19.12995 2.001506,-19.12995 0,0 0.808028,-8.565639 0.808028,-8.565639 0,0 -8.565641,0 -8.565641,0 0,0 0.29123,-5.659047 0.29123,-5.659047 0,0 2.56398,-1.995791 2.56398,-1.995791 0,0 6.938172,-4.68255 6.938172,-4.68255 0,0 1.436173,-3.65182 1.436173,-3.65182 0,0 2.526871,-7.13804 2.526871,-7.13804 0,0 5.15366,-7.70909 5.15366,-7.70909 0,0 2.583968,-3.7117693 2.583968,-3.7117693 0,0 0.205577,-4.56835 0.205577,-4.56835 0,0 3.140742,-0.1656 3.140742,-0.1656 0,0 1.998644,-0.9308 1.998644,-0.9308 0,0 5.710436,0 5.710436,0 0,0 3.426258,1.05357 3.426258,1.05357 0,0 2.855217,0 2.855217,0 0,0 0.205578,4.61118 0.205578,4.61118 0,0 2.583968,3.7117693 2.583968,3.7117693 0,0 5.153659,7.70909 5.153659,7.70909 0,0 2.526872,7.13804 2.526872,7.13804 0,0 1.436172,3.65182 1.436172,3.65182 0,0 6.93818,4.68255 6.93818,4.68255 0,0 2.56397,1.995791 2.56397,1.995791 0,0 0.29124,5.659047 0.29124,5.659047 0,0 -8.565649,0 -8.565649,0 0,0 0.808029,8.565639 0.808029,8.565639 0,0 2.001506,19.12995 2.001506,19.12995 0,0 0.879406,8.280119 0.879406,8.280119 0.06853,0.867986 0.2484,3.608994 0.599597,4.257127 0.536776,0.993617 4.562627,3.77174 5.704727,4.631158 0,0 13.13399,9.941868 13.13399,9.941868 1.5875,1.147794 2.16996,1.036437 3.9973,1.321962 0.63386,0.09994 1.51612,0.111357 1.82448,0.779471 0.30837,0.676689 -0.31979,3.877389 -0.46825,4.765349 0,0 -1.64175,11.13535 -1.64175,11.13535 -1.84733,0.25125 -1.39905,0.62244 -3.71178,0.56819 -1.04215,-0.0257 -2.31843,-0.42828 -3.14074,-0.23984 0,0 -7.13803,3.31204 -7.13803,3.31204 0,0 -10.278791,5.02519 -10.278791,5.02519 -1.57893,0.95649 -2.775271,2.94372 -3.806003,4.46841 -0.573893,0.848 -1.210606,2.01578 -2.201369,2.39838 -0.528218,0.20558 -1.410477,0.16846 -1.987232,0.17131 0,0.73951 0.159894,2.36127 -0.45683,2.84951 z"
     inkscape:connector-curvature="0"
     style="fill:#ffffff;stroke:none;stroke-width:2.50738503000000000;stroke-miterlimit:4;stroke-dasharray:none;fill-opacity:1" />
</svg>
