<?xml version="1.0" encoding="UTF-8" standalone="no"?>
<svg
   xmlns:dc="http://purl.org/dc/elements/1.1/"
   xmlns:cc="http://creativecommons.org/ns#"
   xmlns:rdf="http://www.w3.org/1999/02/22-rdf-syntax-ns#"
   xmlns:svg="http://www.w3.org/2000/svg"
   xmlns="http://www.w3.org/2000/svg"
   xmlns:sodipodi="http://sodipodi.sourceforge.net/DTD/sodipodi-0.dtd"
   xmlns:inkscape="http://www.inkscape.org/namespaces/inkscape"
   width="64"
   height="64"
   viewBox="0 0 68.257113 68.257123"
   id="svg2"
   version="1.1"
   inkscape:version="0.48.4 r9939"
   sodipodi:docname="yngtiger.svg"
   inkscape:export-filename="J:\Games\Ren'Py\Projects\gasl\game\gui\icons\yngtiger.png"
   inkscape:export-xdpi="90"
   inkscape:export-ydpi="90">
  <metadata
     id="metadata9">
    <rdf:RDF>
      <cc:Work
         rdf:about="">
        <dc:format>image/svg+xml</dc:format>
        <dc:type
           rdf:resource="http://purl.org/dc/dcmitype/StillImage" />
        <dc:title></dc:title>
      </cc:Work>
    </rdf:RDF>
  </metadata>
  <defs
     id="defs7" />
  <sodipodi:namedview
     pagecolor="#ffffff"
     bordercolor="#666666"
     borderopacity="1"
     objecttolerance="10"
     gridtolerance="10"
     guidetolerance="10"
     inkscape:pageopacity="0"
     inkscape:pageshadow="2"
     inkscape:window-width="1034"
     inkscape:window-height="772"
     id="namedview5"
     showgrid="false"
     fit-margin-top="0"
     fit-margin-left="0"
     fit-margin-right="0"
     fit-margin-bottom="0"
     inkscape:zoom="5.4552479"
     inkscape:cx="27.364384"
     inkscape:cy="24.01448"
     inkscape:window-x="0"
     inkscape:window-y="0"
     inkscape:window-maximized="0"
     inkscape:current-layer="svg2" />
  <path
     id="Selection"
     d="m 42.51318,54.51988 c 0,0 -0.364525,3.139614 -0.364525,3.139614 0,0 -0.273396,1.758181 -0.273396,1.758181 -0.164841,0.592761 -0.76926,1.775764 -1.064097,2.386106 -0.233187,0.484756 -0.596375,1.353801 -0.909979,1.758181 -0.270713,0.347869 -2.248809,2.204008 -2.614675,2.447643 -0.475762,0.317729 -1.179348,0.444569 -1.742219,0.609086 -0.402056,0.118048 -1.362959,0.413171 -1.742227,0.413171 -0.379262,0 -1.340167,-0.295123 -1.742225,-0.413171 -0.451633,-0.131863 -1.168623,-0.283823 -1.551918,-0.499828 -0.554828,-0.315215 -2.515504,-2.166334 -2.876004,-2.682482 -0.314944,-0.453364 -1.695318,-3.354365 -1.865522,-3.893119 -0.166184,-0.528711 -0.233194,-1.322405 -0.310925,-1.883768 0,0 -0.364522,-3.014028 -0.364522,-3.014028 0,0 0,-3.390784 0,-3.390784 0,0 -6.432824,0 -6.432824,0 0,1.512037 -0.117987,3.845402 -0.55484,5.274549 -0.113853,0.370474 -0.422147,1.558505 -0.71967,1.755672 -0.235862,0.156983 -0.718331,0.128096 -1.00378,0.128096 0,0 -3.350431,0 -3.350431,0 -0.300202,0 -0.775959,0.02637 -1.031936,-0.128096 -0.395343,-0.238611 -0.71029,-1.553476 -0.842969,-2.006841 C 10.630493,54.488483 10.75111,51.190645 10.75111,49.245335 8.4500247,48.91253 7.3859367,47.90284 5.6584527,46.608056 c -1.238312,-0.92806 -1.873564,-0.997132 -1.876245,-2.511681 0,0 0,-4.018708 0,-4.018708 0,-0.247392 -0.01603,-0.642991 0.08041,-0.867789 0.211751,-0.494798 1.424613,-1.08881 1.929853,-1.38645 0,0 5.8967613,-3.4498 5.8967613,-3.4498 0,0 2.412309,-1.426639 2.412309,-1.426639 0,0 3.618458,-2.916069 3.618458,-2.916069 0,0 2.762088,-2.281882 2.762088,-2.281882 0,0 2.104077,-3.495009 2.104077,-3.495009 0,0 2.342618,-4.018707 2.342618,-4.018707 0.180926,-0.408145 0.266699,-1.97795 0.308245,-2.511681 0,0 0.412768,-4.395453 0.412768,-4.395453 0.08981,-0.825093 0.5106,-1.945311 0.762556,-2.762867 0,0 1.191418,-3.6419457 1.191418,-3.6419457 0,0 1.283881,-1.883773 1.283881,-1.883773 0.341749,-0.479728 1.196779,-1.761943 1.588104,-2.085955 0.347109,-0.286325 1.254395,-0.626665 1.718101,-0.830103 0.36988,-0.162019 1.228944,-0.547556 1.608205,-0.547556 0.379268,0 1.238322,0.385537 1.608207,0.547556 0.463702,0.203438 1.370998,0.543778 1.718103,0.830103 0.398027,0.329036 1.324087,1.715487 1.676551,2.211541 0,0 1.195434,1.758187 1.195434,1.758187 0,0 1.191413,3.6419457 1.191413,3.6419457 0.251956,0.817556 0.672767,1.937774 0.762558,2.762867 0,0 0.412772,4.395453 0.412772,4.395453 0.0469,0.592756 0.132679,2.313266 0.327005,2.762854 0,0 2.189839,3.767534 2.189839,3.767534 0,0 2.002221,3.350597 2.002221,3.350597 0,0 2.863945,2.317022 2.863945,2.317022 0,0 3.752482,3.025341 3.752482,3.025341 0,0 2.546326,1.503247 2.546326,1.503247 0,0 5.762741,3.373192 5.762741,3.373192 0.505241,0.29764 1.718095,0.891652 1.929842,1.38645 0.09649,0.224798 0.08041,0.620397 0.08041,0.867789 0,0 0,4.018708 0,4.018708 -0.0029,1.514549 -0.637921,1.583621 -1.87624,2.511681 -1.727484,1.294784 -2.791577,2.304474 -5.092652,2.637279 0,1.94531 0.120617,5.243148 -0.403391,7.032727 -0.132676,0.453365 -0.447617,1.76823 -0.842967,2.006841 -0.255976,0.154469 -0.731736,0.128096 -1.031935,0.128096 0,0 -3.35043,0 -3.35043,0 -0.285456,0 -0.767915,0.02887 -1.003786,-0.128096 -0.297521,-0.197167 -0.605757,-1.385198 -0.719672,-1.755672 -0.418135,-1.371378 -0.554832,-3.815258 -0.554832,-5.274549 0,0 -6.432827,0 -6.432827,0 0,0 0,3.265198 0,3.265198 z"
     inkscape:connector-curvature="0"
     style="fill:#ffffff;stroke:none;stroke-width:2.13303508999999990;stroke-miterlimit:4;stroke-dasharray:none;fill-opacity:1;stroke-opacity:1"
     inkscape:export-xdpi="90"
     inkscape:export-ydpi="90" />
</svg>
